G04 MADE WITH FRITZING*
G04 WWW.FRITZING.ORG*
G04 DOUBLE SIDED*
G04 HOLES PLATED*
G04 CONTOUR ON CENTER OF CONTOUR VECTOR*
%ASAXBY*%
%FSLAX23Y23*%
%MOIN*%
%OFA0B0*%
%SFA1.0B1.0*%
%ADD10C,0.080000*%
%ADD11C,0.084000*%
%ADD12C,0.090000*%
%ADD13C,0.135984*%
%ADD14C,0.085000*%
%ADD15C,0.072992*%
%ADD16C,0.049370*%
%ADD17C,0.180000*%
%ADD18R,0.079972X0.080000*%
%ADD19R,0.090000X0.090000*%
%ADD20R,0.085000X0.085000*%
%ADD21R,0.072992X0.072992*%
%ADD22R,0.001000X0.001000*%
%LNMASK1*%
G90*
G70*
G54D10*
X1411Y2193D03*
X1411Y2093D03*
X1411Y1993D03*
X1411Y1893D03*
X1411Y1793D03*
X1411Y1693D03*
X1411Y1593D03*
X1411Y1493D03*
X1411Y1393D03*
X1411Y1293D03*
X1411Y1193D03*
X1411Y1093D03*
X1411Y993D03*
X1411Y893D03*
X1411Y793D03*
X2011Y2193D03*
X2011Y2093D03*
X2011Y1993D03*
X2011Y1893D03*
X2011Y1793D03*
X2011Y1693D03*
X2011Y1593D03*
X2011Y1493D03*
X2011Y1393D03*
X2011Y1293D03*
X2011Y1193D03*
X2011Y1093D03*
X2011Y993D03*
X2011Y893D03*
X2011Y793D03*
G54D11*
X911Y2093D03*
X911Y1993D03*
X911Y1893D03*
X911Y2093D03*
X911Y1993D03*
X911Y1893D03*
G54D12*
X2411Y693D03*
X2411Y493D03*
X2411Y1093D03*
X2411Y893D03*
X2411Y1493D03*
X2411Y1293D03*
X2411Y1893D03*
X2411Y1693D03*
G54D11*
X961Y693D03*
X911Y593D03*
X861Y693D03*
X761Y693D03*
X661Y693D03*
X811Y593D03*
X711Y593D03*
X611Y593D03*
G54D13*
X561Y343D03*
X1011Y343D03*
G54D12*
X2411Y2293D03*
X2411Y2093D03*
G54D14*
X611Y1193D03*
X911Y1193D03*
X611Y1093D03*
X911Y1093D03*
X611Y993D03*
X911Y993D03*
X611Y893D03*
X911Y893D03*
X511Y793D03*
X511Y1193D03*
G54D15*
X211Y1445D03*
X211Y1347D03*
X211Y1094D03*
X211Y1193D03*
G54D14*
X211Y1593D03*
X611Y1593D03*
X211Y993D03*
X211Y593D03*
G54D16*
X1111Y1293D03*
G54D12*
X2011Y293D03*
X1811Y293D03*
X1611Y293D03*
X1411Y293D03*
G54D16*
X1711Y793D03*
X1611Y793D03*
X1511Y793D03*
X1811Y793D03*
G54D13*
X2411Y193D03*
X211Y393D03*
X1111Y2293D03*
G54D17*
X447Y2093D03*
X211Y2093D03*
X329Y1908D03*
X447Y2093D03*
X211Y2093D03*
X329Y1908D03*
G54D16*
X1111Y1492D03*
G54D18*
X1411Y2193D03*
G54D19*
X2411Y693D03*
X2411Y1093D03*
X2411Y1493D03*
X2411Y1893D03*
X2411Y2293D03*
G54D20*
X611Y1193D03*
G54D21*
X211Y1445D03*
X211Y1094D03*
G54D19*
X2011Y293D03*
X1611Y293D03*
G54D22*
X869Y2134D02*
X952Y2134D01*
X869Y2133D02*
X952Y2133D01*
X869Y2132D02*
X952Y2132D01*
X869Y2131D02*
X952Y2131D01*
X869Y2130D02*
X952Y2130D01*
X869Y2129D02*
X952Y2129D01*
X869Y2128D02*
X952Y2128D01*
X869Y2127D02*
X952Y2127D01*
X869Y2126D02*
X952Y2126D01*
X869Y2125D02*
X952Y2125D01*
X869Y2124D02*
X952Y2124D01*
X869Y2123D02*
X952Y2123D01*
X869Y2122D02*
X952Y2122D01*
X869Y2121D02*
X952Y2121D01*
X869Y2120D02*
X952Y2120D01*
X869Y2119D02*
X952Y2119D01*
X869Y2118D02*
X952Y2118D01*
X869Y2117D02*
X952Y2117D01*
X869Y2116D02*
X952Y2116D01*
X869Y2115D02*
X952Y2115D01*
X869Y2114D02*
X952Y2114D01*
X869Y2113D02*
X952Y2113D01*
X869Y2112D02*
X952Y2112D01*
X869Y2111D02*
X952Y2111D01*
X869Y2110D02*
X952Y2110D01*
X869Y2109D02*
X952Y2109D01*
X869Y2108D02*
X952Y2108D01*
X869Y2107D02*
X906Y2107D01*
X915Y2107D02*
X952Y2107D01*
X869Y2106D02*
X903Y2106D01*
X918Y2106D02*
X952Y2106D01*
X869Y2105D02*
X901Y2105D01*
X919Y2105D02*
X952Y2105D01*
X869Y2104D02*
X900Y2104D01*
X920Y2104D02*
X952Y2104D01*
X869Y2103D02*
X899Y2103D01*
X921Y2103D02*
X952Y2103D01*
X869Y2102D02*
X898Y2102D01*
X922Y2102D02*
X952Y2102D01*
X869Y2101D02*
X897Y2101D01*
X923Y2101D02*
X952Y2101D01*
X869Y2100D02*
X897Y2100D01*
X924Y2100D02*
X952Y2100D01*
X869Y2099D02*
X896Y2099D01*
X924Y2099D02*
X952Y2099D01*
X869Y2098D02*
X896Y2098D01*
X925Y2098D02*
X952Y2098D01*
X869Y2097D02*
X896Y2097D01*
X925Y2097D02*
X952Y2097D01*
X869Y2096D02*
X895Y2096D01*
X925Y2096D02*
X952Y2096D01*
X869Y2095D02*
X895Y2095D01*
X925Y2095D02*
X952Y2095D01*
X869Y2094D02*
X895Y2094D01*
X925Y2094D02*
X952Y2094D01*
X869Y2093D02*
X895Y2093D01*
X925Y2093D02*
X952Y2093D01*
X869Y2092D02*
X895Y2092D01*
X925Y2092D02*
X952Y2092D01*
X869Y2091D02*
X895Y2091D01*
X925Y2091D02*
X952Y2091D01*
X869Y2090D02*
X895Y2090D01*
X925Y2090D02*
X952Y2090D01*
X869Y2089D02*
X896Y2089D01*
X925Y2089D02*
X952Y2089D01*
X869Y2088D02*
X896Y2088D01*
X925Y2088D02*
X952Y2088D01*
X869Y2087D02*
X896Y2087D01*
X924Y2087D02*
X952Y2087D01*
X869Y2086D02*
X897Y2086D01*
X924Y2086D02*
X952Y2086D01*
X869Y2085D02*
X897Y2085D01*
X923Y2085D02*
X952Y2085D01*
X869Y2084D02*
X898Y2084D01*
X922Y2084D02*
X952Y2084D01*
X869Y2083D02*
X899Y2083D01*
X922Y2083D02*
X952Y2083D01*
X869Y2082D02*
X900Y2082D01*
X920Y2082D02*
X952Y2082D01*
X869Y2081D02*
X901Y2081D01*
X919Y2081D02*
X952Y2081D01*
X869Y2080D02*
X903Y2080D01*
X918Y2080D02*
X952Y2080D01*
X869Y2079D02*
X905Y2079D01*
X915Y2079D02*
X952Y2079D01*
X869Y2078D02*
X952Y2078D01*
X869Y2077D02*
X952Y2077D01*
X869Y2076D02*
X952Y2076D01*
X869Y2075D02*
X952Y2075D01*
X869Y2074D02*
X952Y2074D01*
X869Y2073D02*
X952Y2073D01*
X869Y2072D02*
X952Y2072D01*
X869Y2071D02*
X952Y2071D01*
X869Y2070D02*
X952Y2070D01*
X869Y2069D02*
X952Y2069D01*
X869Y2068D02*
X952Y2068D01*
X869Y2067D02*
X952Y2067D01*
X869Y2066D02*
X952Y2066D01*
X869Y2065D02*
X952Y2065D01*
X869Y2064D02*
X952Y2064D01*
X869Y2063D02*
X952Y2063D01*
X869Y2062D02*
X952Y2062D01*
X869Y2061D02*
X952Y2061D01*
X869Y2060D02*
X952Y2060D01*
X869Y2059D02*
X952Y2059D01*
X869Y2058D02*
X952Y2058D01*
X869Y2057D02*
X952Y2057D01*
X869Y2056D02*
X952Y2056D01*
X869Y2055D02*
X952Y2055D01*
X869Y2054D02*
X952Y2054D01*
X869Y2053D02*
X952Y2053D01*
X869Y2052D02*
X952Y2052D01*
X869Y2051D02*
X951Y2051D01*
X569Y635D02*
X651Y635D01*
X569Y634D02*
X652Y634D01*
X569Y633D02*
X652Y633D01*
X569Y632D02*
X652Y632D01*
X569Y631D02*
X652Y631D01*
X569Y630D02*
X652Y630D01*
X569Y629D02*
X652Y629D01*
X569Y628D02*
X652Y628D01*
X569Y627D02*
X652Y627D01*
X569Y626D02*
X652Y626D01*
X569Y625D02*
X652Y625D01*
X569Y624D02*
X652Y624D01*
X569Y623D02*
X652Y623D01*
X569Y622D02*
X652Y622D01*
X569Y621D02*
X652Y621D01*
X569Y620D02*
X652Y620D01*
X569Y619D02*
X652Y619D01*
X569Y618D02*
X652Y618D01*
X569Y617D02*
X652Y617D01*
X569Y616D02*
X652Y616D01*
X569Y615D02*
X652Y615D01*
X569Y614D02*
X652Y614D01*
X569Y613D02*
X652Y613D01*
X569Y612D02*
X652Y612D01*
X569Y611D02*
X652Y611D01*
X569Y610D02*
X652Y610D01*
X569Y609D02*
X652Y609D01*
X569Y608D02*
X652Y608D01*
X569Y607D02*
X605Y607D01*
X616Y607D02*
X652Y607D01*
X569Y606D02*
X603Y606D01*
X618Y606D02*
X652Y606D01*
X569Y605D02*
X601Y605D01*
X619Y605D02*
X652Y605D01*
X569Y604D02*
X600Y604D01*
X621Y604D02*
X652Y604D01*
X569Y603D02*
X599Y603D01*
X622Y603D02*
X652Y603D01*
X569Y602D02*
X598Y602D01*
X622Y602D02*
X652Y602D01*
X569Y601D02*
X597Y601D01*
X623Y601D02*
X652Y601D01*
X569Y600D02*
X597Y600D01*
X624Y600D02*
X652Y600D01*
X569Y599D02*
X596Y599D01*
X624Y599D02*
X652Y599D01*
X569Y598D02*
X596Y598D01*
X625Y598D02*
X652Y598D01*
X569Y597D02*
X596Y597D01*
X625Y597D02*
X652Y597D01*
X569Y596D02*
X595Y596D01*
X625Y596D02*
X652Y596D01*
X569Y595D02*
X595Y595D01*
X625Y595D02*
X652Y595D01*
X569Y594D02*
X595Y594D01*
X625Y594D02*
X652Y594D01*
X569Y593D02*
X595Y593D01*
X626Y593D02*
X652Y593D01*
X569Y592D02*
X595Y592D01*
X625Y592D02*
X652Y592D01*
X569Y591D02*
X595Y591D01*
X625Y591D02*
X652Y591D01*
X569Y590D02*
X595Y590D01*
X625Y590D02*
X652Y590D01*
X569Y589D02*
X596Y589D01*
X625Y589D02*
X652Y589D01*
X569Y588D02*
X596Y588D01*
X625Y588D02*
X652Y588D01*
X569Y587D02*
X596Y587D01*
X624Y587D02*
X652Y587D01*
X569Y586D02*
X597Y586D01*
X624Y586D02*
X652Y586D01*
X569Y585D02*
X598Y585D01*
X623Y585D02*
X652Y585D01*
X569Y584D02*
X598Y584D01*
X622Y584D02*
X652Y584D01*
X569Y583D02*
X599Y583D01*
X622Y583D02*
X652Y583D01*
X569Y582D02*
X600Y582D01*
X620Y582D02*
X652Y582D01*
X569Y581D02*
X601Y581D01*
X619Y581D02*
X652Y581D01*
X569Y580D02*
X603Y580D01*
X618Y580D02*
X652Y580D01*
X569Y579D02*
X606Y579D01*
X615Y579D02*
X652Y579D01*
X569Y578D02*
X652Y578D01*
X569Y577D02*
X652Y577D01*
X569Y576D02*
X652Y576D01*
X569Y575D02*
X652Y575D01*
X569Y574D02*
X652Y574D01*
X569Y573D02*
X652Y573D01*
X569Y572D02*
X652Y572D01*
X569Y571D02*
X652Y571D01*
X569Y570D02*
X652Y570D01*
X569Y569D02*
X652Y569D01*
X569Y568D02*
X652Y568D01*
X569Y567D02*
X652Y567D01*
X569Y566D02*
X652Y566D01*
X569Y565D02*
X652Y565D01*
X569Y564D02*
X652Y564D01*
X569Y563D02*
X652Y563D01*
X569Y562D02*
X652Y562D01*
X569Y561D02*
X652Y561D01*
X569Y560D02*
X652Y560D01*
X569Y559D02*
X652Y559D01*
X569Y558D02*
X652Y558D01*
X569Y557D02*
X652Y557D01*
X569Y556D02*
X652Y556D01*
X569Y555D02*
X652Y555D01*
X569Y554D02*
X652Y554D01*
X569Y553D02*
X652Y553D01*
X569Y552D02*
X652Y552D01*
D02*
G04 End of Mask1*
M02*