G04 MADE WITH FRITZING*
G04 WWW.FRITZING.ORG*
G04 DOUBLE SIDED*
G04 HOLES PLATED*
G04 CONTOUR ON CENTER OF CONTOUR VECTOR*
%ASAXBY*%
%FSLAX23Y23*%
%MOIN*%
%OFA0B0*%
%SFA1.0B1.0*%
%ADD10C,0.070000*%
%ADD11C,0.074000*%
%ADD12C,0.080000*%
%ADD13C,0.075000*%
%ADD14C,0.062992*%
%ADD15C,0.039370*%
%ADD16C,0.170000*%
%ADD17R,0.069972X0.070000*%
%ADD18R,0.080000X0.080000*%
%ADD19R,0.075000X0.075000*%
%ADD20R,0.062992X0.062992*%
%ADD21C,0.024000*%
%ADD22C,0.032000*%
%ADD23R,0.001000X0.001000*%
%LNCOPPER1*%
G90*
G70*
G54D10*
X1411Y2193D03*
X1411Y2093D03*
X1411Y1993D03*
X1411Y1893D03*
X1411Y1793D03*
X1411Y1693D03*
X1411Y1593D03*
X1411Y1493D03*
X1411Y1393D03*
X1411Y1293D03*
X1411Y1193D03*
X1411Y1093D03*
X1411Y993D03*
X1411Y893D03*
X1411Y793D03*
X2011Y2193D03*
X2011Y2093D03*
X2011Y1993D03*
X2011Y1893D03*
X2011Y1793D03*
X2011Y1693D03*
X2011Y1593D03*
X2011Y1493D03*
X2011Y1393D03*
X2011Y1293D03*
X2011Y1193D03*
X2011Y1093D03*
X2011Y993D03*
X2011Y893D03*
X2011Y793D03*
G54D11*
X911Y2093D03*
X911Y1993D03*
X911Y1893D03*
X911Y2093D03*
X911Y1993D03*
X911Y1893D03*
G54D12*
X2411Y693D03*
X2411Y493D03*
X2411Y1093D03*
X2411Y893D03*
X2411Y1493D03*
X2411Y1293D03*
X2411Y1893D03*
X2411Y1693D03*
G54D11*
X961Y693D03*
X911Y593D03*
X861Y693D03*
X761Y693D03*
X661Y693D03*
X811Y593D03*
X711Y593D03*
X611Y593D03*
G54D12*
X2411Y2293D03*
X2411Y2093D03*
G54D13*
X611Y1193D03*
X911Y1193D03*
X611Y1093D03*
X911Y1093D03*
X611Y993D03*
X911Y993D03*
X611Y893D03*
X911Y893D03*
X511Y793D03*
X511Y1193D03*
G54D14*
X211Y1445D03*
X211Y1347D03*
X211Y1094D03*
X211Y1193D03*
G54D13*
X211Y1593D03*
X611Y1593D03*
X211Y993D03*
X211Y593D03*
G54D15*
X1111Y1293D03*
G54D12*
X2011Y293D03*
X1811Y293D03*
X1611Y293D03*
X1411Y293D03*
G54D15*
X1711Y793D03*
X1611Y793D03*
X1511Y793D03*
X1811Y793D03*
G54D16*
X447Y2093D03*
X211Y2093D03*
X329Y1908D03*
X447Y2093D03*
X211Y2093D03*
X329Y1908D03*
G54D15*
X1111Y1492D03*
G54D17*
X1411Y2193D03*
G54D18*
X2411Y693D03*
X2411Y1093D03*
X2411Y1493D03*
X2411Y1893D03*
X2411Y2293D03*
G54D19*
X611Y1193D03*
G54D20*
X211Y1445D03*
X211Y1094D03*
G54D18*
X2011Y293D03*
X1611Y293D03*
G54D21*
X1911Y1893D02*
X1911Y2293D01*
D02*
X1310Y2092D02*
X1111Y2092D01*
D02*
X1111Y2092D02*
X1111Y1893D01*
D02*
X1111Y1893D02*
X942Y1893D01*
D02*
X1982Y1893D02*
X1911Y1893D01*
D02*
X1911Y2293D02*
X1310Y2292D01*
D02*
X1310Y2292D02*
X1310Y2092D01*
D02*
X1011Y993D02*
X966Y723D01*
D02*
X940Y993D02*
X1011Y993D01*
D02*
X940Y1093D02*
X1111Y1093D01*
D02*
X1111Y1093D02*
X1011Y593D01*
D02*
X1011Y593D02*
X942Y593D01*
D02*
X611Y1064D02*
X611Y1021D01*
D02*
X2381Y700D02*
X2039Y786D01*
D02*
X2111Y1893D02*
X2032Y1813D01*
D02*
X2392Y2268D02*
X2111Y1893D01*
D02*
X2389Y2071D02*
X2032Y1713D01*
D02*
X2386Y1874D02*
X2034Y1610D01*
D02*
X2383Y1679D02*
X2037Y1506D01*
D02*
X2381Y1485D02*
X2039Y1400D01*
D02*
X2380Y1293D02*
X2040Y1293D01*
D02*
X2011Y693D02*
X1911Y793D01*
D02*
X1911Y793D02*
X1911Y993D01*
D02*
X1911Y993D02*
X1511Y992D01*
D02*
X2385Y510D02*
X2111Y693D01*
D02*
X2111Y693D02*
X2011Y693D01*
D02*
X1511Y992D02*
X1440Y993D01*
D02*
X211Y1472D02*
X211Y1564D01*
D02*
X211Y1021D02*
X211Y1067D01*
D02*
X1211Y1393D02*
X1211Y1093D01*
D02*
X1211Y1093D02*
X1382Y1093D01*
D02*
X640Y1193D02*
X711Y1193D01*
D02*
X711Y1393D02*
X1211Y1393D01*
D02*
X711Y1193D02*
X711Y1393D01*
D02*
X811Y1293D02*
X811Y1093D01*
D02*
X1092Y1293D02*
X811Y1293D01*
D02*
X811Y1093D02*
X640Y1093D01*
D02*
X1805Y323D02*
X1715Y774D01*
D02*
X1611Y774D02*
X1611Y324D01*
D02*
X1507Y774D02*
X1417Y323D01*
D02*
X1999Y322D02*
X1818Y775D01*
D02*
X611Y1221D02*
X612Y1292D01*
D02*
X612Y1292D02*
X238Y1343D01*
G54D22*
D02*
X880Y2093D02*
X517Y2093D01*
G54D21*
D02*
X1310Y1492D02*
X1130Y1492D01*
D02*
X1310Y1293D02*
X1310Y1492D01*
D02*
X1382Y1293D02*
X1310Y1293D01*
G54D23*
X874Y2129D02*
X947Y2129D01*
X874Y2128D02*
X947Y2128D01*
X874Y2127D02*
X947Y2127D01*
X874Y2126D02*
X947Y2126D01*
X874Y2125D02*
X947Y2125D01*
X874Y2124D02*
X947Y2124D01*
X874Y2123D02*
X947Y2123D01*
X874Y2122D02*
X947Y2122D01*
X874Y2121D02*
X947Y2121D01*
X874Y2120D02*
X947Y2120D01*
X874Y2119D02*
X947Y2119D01*
X874Y2118D02*
X947Y2118D01*
X874Y2117D02*
X947Y2117D01*
X874Y2116D02*
X947Y2116D01*
X874Y2115D02*
X947Y2115D01*
X874Y2114D02*
X947Y2114D01*
X874Y2113D02*
X947Y2113D01*
X874Y2112D02*
X905Y2112D01*
X915Y2112D02*
X947Y2112D01*
X874Y2111D02*
X902Y2111D01*
X919Y2111D02*
X947Y2111D01*
X874Y2110D02*
X900Y2110D01*
X920Y2110D02*
X947Y2110D01*
X874Y2109D02*
X898Y2109D01*
X922Y2109D02*
X947Y2109D01*
X874Y2108D02*
X897Y2108D01*
X923Y2108D02*
X947Y2108D01*
X874Y2107D02*
X896Y2107D01*
X924Y2107D02*
X947Y2107D01*
X874Y2106D02*
X895Y2106D01*
X925Y2106D02*
X947Y2106D01*
X874Y2105D02*
X894Y2105D01*
X926Y2105D02*
X947Y2105D01*
X874Y2104D02*
X894Y2104D01*
X927Y2104D02*
X947Y2104D01*
X874Y2103D02*
X893Y2103D01*
X928Y2103D02*
X947Y2103D01*
X874Y2102D02*
X892Y2102D01*
X928Y2102D02*
X947Y2102D01*
X874Y2101D02*
X892Y2101D01*
X929Y2101D02*
X947Y2101D01*
X874Y2100D02*
X891Y2100D01*
X929Y2100D02*
X947Y2100D01*
X874Y2099D02*
X891Y2099D01*
X929Y2099D02*
X947Y2099D01*
X874Y2098D02*
X891Y2098D01*
X930Y2098D02*
X947Y2098D01*
X874Y2097D02*
X891Y2097D01*
X930Y2097D02*
X947Y2097D01*
X874Y2096D02*
X890Y2096D01*
X930Y2096D02*
X947Y2096D01*
X874Y2095D02*
X890Y2095D01*
X930Y2095D02*
X947Y2095D01*
X874Y2094D02*
X890Y2094D01*
X930Y2094D02*
X947Y2094D01*
X874Y2093D02*
X890Y2093D01*
X930Y2093D02*
X947Y2093D01*
X874Y2092D02*
X890Y2092D01*
X930Y2092D02*
X947Y2092D01*
X874Y2091D02*
X890Y2091D01*
X930Y2091D02*
X947Y2091D01*
X874Y2090D02*
X890Y2090D01*
X930Y2090D02*
X947Y2090D01*
X874Y2089D02*
X891Y2089D01*
X930Y2089D02*
X947Y2089D01*
X874Y2088D02*
X891Y2088D01*
X930Y2088D02*
X947Y2088D01*
X874Y2087D02*
X891Y2087D01*
X929Y2087D02*
X947Y2087D01*
X874Y2086D02*
X891Y2086D01*
X929Y2086D02*
X947Y2086D01*
X874Y2085D02*
X892Y2085D01*
X929Y2085D02*
X947Y2085D01*
X874Y2084D02*
X892Y2084D01*
X928Y2084D02*
X947Y2084D01*
X874Y2083D02*
X893Y2083D01*
X928Y2083D02*
X947Y2083D01*
X874Y2082D02*
X893Y2082D01*
X927Y2082D02*
X947Y2082D01*
X874Y2081D02*
X894Y2081D01*
X926Y2081D02*
X947Y2081D01*
X874Y2080D02*
X895Y2080D01*
X925Y2080D02*
X947Y2080D01*
X874Y2079D02*
X896Y2079D01*
X925Y2079D02*
X947Y2079D01*
X874Y2078D02*
X897Y2078D01*
X923Y2078D02*
X947Y2078D01*
X874Y2077D02*
X898Y2077D01*
X922Y2077D02*
X947Y2077D01*
X874Y2076D02*
X900Y2076D01*
X921Y2076D02*
X947Y2076D01*
X874Y2075D02*
X902Y2075D01*
X919Y2075D02*
X947Y2075D01*
X874Y2074D02*
X905Y2074D01*
X916Y2074D02*
X947Y2074D01*
X874Y2073D02*
X947Y2073D01*
X874Y2072D02*
X947Y2072D01*
X874Y2071D02*
X947Y2071D01*
X874Y2070D02*
X947Y2070D01*
X874Y2069D02*
X947Y2069D01*
X874Y2068D02*
X947Y2068D01*
X874Y2067D02*
X947Y2067D01*
X874Y2066D02*
X947Y2066D01*
X874Y2065D02*
X947Y2065D01*
X874Y2064D02*
X947Y2064D01*
X874Y2063D02*
X947Y2063D01*
X874Y2062D02*
X947Y2062D01*
X874Y2061D02*
X947Y2061D01*
X874Y2060D02*
X947Y2060D01*
X874Y2059D02*
X947Y2059D01*
X874Y2058D02*
X947Y2058D01*
X874Y2057D02*
X947Y2057D01*
X874Y2056D02*
X946Y2056D01*
X574Y630D02*
X646Y630D01*
X574Y629D02*
X647Y629D01*
X574Y628D02*
X647Y628D01*
X574Y627D02*
X647Y627D01*
X574Y626D02*
X647Y626D01*
X574Y625D02*
X647Y625D01*
X574Y624D02*
X647Y624D01*
X574Y623D02*
X647Y623D01*
X574Y622D02*
X647Y622D01*
X574Y621D02*
X647Y621D01*
X574Y620D02*
X647Y620D01*
X574Y619D02*
X647Y619D01*
X574Y618D02*
X647Y618D01*
X574Y617D02*
X647Y617D01*
X574Y616D02*
X647Y616D01*
X574Y615D02*
X647Y615D01*
X574Y614D02*
X647Y614D01*
X574Y613D02*
X647Y613D01*
X574Y612D02*
X605Y612D01*
X616Y612D02*
X647Y612D01*
X574Y611D02*
X602Y611D01*
X619Y611D02*
X647Y611D01*
X574Y610D02*
X600Y610D01*
X621Y610D02*
X647Y610D01*
X574Y609D02*
X598Y609D01*
X622Y609D02*
X647Y609D01*
X574Y608D02*
X597Y608D01*
X624Y608D02*
X647Y608D01*
X574Y607D02*
X596Y607D01*
X625Y607D02*
X647Y607D01*
X574Y606D02*
X595Y606D01*
X626Y606D02*
X647Y606D01*
X574Y605D02*
X594Y605D01*
X626Y605D02*
X647Y605D01*
X574Y604D02*
X594Y604D01*
X627Y604D02*
X647Y604D01*
X574Y603D02*
X593Y603D01*
X628Y603D02*
X647Y603D01*
X574Y602D02*
X592Y602D01*
X628Y602D02*
X647Y602D01*
X574Y601D02*
X592Y601D01*
X629Y601D02*
X647Y601D01*
X574Y600D02*
X592Y600D01*
X629Y600D02*
X647Y600D01*
X574Y599D02*
X591Y599D01*
X630Y599D02*
X647Y599D01*
X574Y598D02*
X591Y598D01*
X630Y598D02*
X647Y598D01*
X574Y597D02*
X591Y597D01*
X630Y597D02*
X647Y597D01*
X574Y596D02*
X590Y596D01*
X630Y596D02*
X647Y596D01*
X574Y595D02*
X590Y595D01*
X630Y595D02*
X647Y595D01*
X574Y594D02*
X590Y594D01*
X630Y594D02*
X647Y594D01*
X574Y593D02*
X590Y593D01*
X631Y593D02*
X647Y593D01*
X574Y592D02*
X590Y592D01*
X630Y592D02*
X647Y592D01*
X574Y591D02*
X590Y591D01*
X630Y591D02*
X647Y591D01*
X574Y590D02*
X590Y590D01*
X630Y590D02*
X647Y590D01*
X574Y589D02*
X591Y589D01*
X630Y589D02*
X647Y589D01*
X574Y588D02*
X591Y588D01*
X630Y588D02*
X647Y588D01*
X574Y587D02*
X591Y587D01*
X629Y587D02*
X647Y587D01*
X574Y586D02*
X592Y586D01*
X629Y586D02*
X647Y586D01*
X574Y585D02*
X592Y585D01*
X629Y585D02*
X647Y585D01*
X574Y584D02*
X593Y584D01*
X628Y584D02*
X647Y584D01*
X574Y583D02*
X593Y583D01*
X628Y583D02*
X647Y583D01*
X574Y582D02*
X594Y582D01*
X627Y582D02*
X647Y582D01*
X574Y581D02*
X594Y581D01*
X626Y581D02*
X647Y581D01*
X574Y580D02*
X595Y580D01*
X625Y580D02*
X647Y580D01*
X574Y579D02*
X596Y579D01*
X625Y579D02*
X647Y579D01*
X574Y578D02*
X597Y578D01*
X623Y578D02*
X647Y578D01*
X574Y577D02*
X599Y577D01*
X622Y577D02*
X647Y577D01*
X574Y576D02*
X600Y576D01*
X620Y576D02*
X647Y576D01*
X574Y575D02*
X602Y575D01*
X619Y575D02*
X647Y575D01*
X574Y574D02*
X605Y574D01*
X615Y574D02*
X647Y574D01*
X574Y573D02*
X647Y573D01*
X574Y572D02*
X647Y572D01*
X574Y571D02*
X647Y571D01*
X574Y570D02*
X647Y570D01*
X574Y569D02*
X647Y569D01*
X574Y568D02*
X647Y568D01*
X574Y567D02*
X647Y567D01*
X574Y566D02*
X647Y566D01*
X574Y565D02*
X647Y565D01*
X574Y564D02*
X647Y564D01*
X574Y563D02*
X647Y563D01*
X574Y562D02*
X647Y562D01*
X574Y561D02*
X647Y561D01*
X574Y560D02*
X647Y560D01*
X574Y559D02*
X647Y559D01*
X574Y558D02*
X647Y558D01*
X574Y557D02*
X647Y557D01*
D02*
G04 End of Copper1*
M02*