; NON-PLATED HOLES START AT T1
; THROUGH (PLATED) HOLES START AT T100
M48
INCH
T1C0.125984
T100C0.118000
T101C0.031497
T102C0.039370
T103C0.015748
T104C0.040000
T105C0.036000
T106C0.035000
%
T1
X002110Y003926
X024110Y001926
X011110Y022926
X005610Y003426
X010110Y003426
T100
X002110Y020926
X003291Y019075
X004472Y020926
T101
X002110Y013470
X002110Y014454
X002110Y011926
X002110Y010942
T102
X009110Y020926
X009610Y006926
X009110Y018926
X006110Y005926
X009110Y019926
X006610Y006926
X007110Y005926
X008110Y005926
X007610Y006926
X009110Y005926
X008610Y006926
T103
X018110Y007926
X017110Y007926
X016110Y007926
X015110Y007926
X011110Y012926
X011107Y014921
T104
X024110Y012926
X024110Y022926
X016110Y002926
X024110Y004926
X024110Y014926
X018110Y002926
X020110Y002926
X024110Y006926
X024110Y016926
X024110Y010926
X024110Y020926
X014110Y002926
X024110Y008926
X024110Y018926
T105
X014110Y015926
X014110Y008926
X020110Y016926
X020110Y009926
X014110Y012926
X020110Y020926
X020110Y013926
X020110Y010926
X014110Y017926
X020110Y018926
X014110Y021926
X014110Y014926
X014110Y007926
X020110Y015926
X020110Y008926
X014110Y011926
X020110Y012926
X014110Y019926
X014110Y016926
X014110Y009926
X020110Y017926
X014110Y020926
X014110Y013926
X020110Y021926
X020110Y014926
X020110Y007926
X014110Y010926
X020110Y011926
X014110Y018926
X020110Y019926
T106
X009110Y010926
X002110Y005926
X002110Y015926
X006110Y009926
X009110Y011926
X009110Y008926
X009110Y009926
X006110Y015926
X006110Y010926
X002110Y009926
X005110Y007926
X005110Y011926
X006110Y011926
X006110Y008926
T00
M30
